<mxfile host="app.diagrams.net" modified="2023-07-12T00:33:25.006Z" agent="Mozilla/5.0 (Windows NT 10.0; Win64; x64) AppleWebKit/537.36 (KHTML, like Gecko) Chrome/114.0.0.0 Safari/537.36 Edg/114.0.1823.67" version="21.6.2" etag="_shsXDIWWz76bh7FPq10" type="github">
  <diagram name="PÃ¡gina-1" id="AK-_lDgeTJbGrxrjyl6c">
    <mxGraphModel>
      <root>
        <mxCell id="0" />
        <mxCell id="1" parent="0" />
      </root>
    </mxGraphModel>
  </diagram>
</mxfile>
